<svg xmlns="http://www.w3.org/2000/svg" width="12" height="10.028" viewBox="0 0 12 10.028">
  <path id="arrow-right" d="M1157.98,348.081v.027a1.143,1.143,0,0,1-.05.26c-.02.035-.04.064-.06.1a.867.867,0,0,1-.13.193.685.685,0,0,1-.11.083l-2.56,3.792a1.205,1.205,0,0,1-1.51.348.873.873,0,0,1-.41-1.3l1.74-2.583H1147a1,1,0,0,1,0-2h7.89l-1.74-2.582a.874.874,0,0,1,.41-1.3,1.208,1.208,0,0,1,1.51.348l2.54,3.762a.154.154,0,0,1,.04.047,1.082,1.082,0,0,1,.22.255h0a.839.839,0,0,1,.11.374v.016a.043.043,0,0,1,.01.033c0,.016.01.03.01.046s-.01.031-.01.046a.048.048,0,0,1-.01.035Z" transform="translate(-1146 -342.988)" fill="#00425f" fill-rule="evenodd"/>
</svg>
